<svg xmlns="http://www.w3.org/2000/svg" width="680" height="560" viewBox="0 0 680 560" font-family="Helvetica, Arial, sans-serif">
<defs>
<marker id="ag" viewBox="0 0 10 10" refX="8" refY="5" markerWidth="6" markerHeight="6" orient="auto-start-reverse"><path d="M2 1L8 5L2 9" fill="none" stroke="#888780" stroke-width="1.5" stroke-linecap="round" stroke-linejoin="round"/></marker>
<marker id="aa" viewBox="0 0 10 10" refX="8" refY="5" markerWidth="6" markerHeight="6" orient="auto-start-reverse"><path d="M2 1L8 5L2 9" fill="none" stroke="#EF9F27" stroke-width="1.5" stroke-linecap="round" stroke-linejoin="round"/></marker>
</defs>
<rect width="680" height="560" fill="#FFFFFF"/>
<text x="40" y="32" font-size="14" font-weight="500" fill="#2C2C2A">Side elevation — looking along the wall (2 px = 1 mm)</text>
<rect x="150" y="290" width="24" height="220" fill="#5DCAA5" fill-opacity="0.3" stroke="#1D9E75" stroke-width="0.75"/>
<rect x="184" y="290" width="352" height="220" fill="#5DCAA5" fill-opacity="0.15" stroke="#1D9E75" stroke-width="0.5"/>
<line x1="546" y1="300" x2="538" y2="350" stroke="#1D9E75" stroke-width="0.5"/>
<line x1="546" y1="360" x2="538" y2="410" stroke="#1D9E75" stroke-width="0.5"/>
<line x1="150" y1="290" x2="174" y2="290" stroke="#1D9E75" stroke-width="1.25"/>
<line x1="184" y1="290" x2="536" y2="290" stroke="#1D9E75" stroke-width="1.25"/>
<line x1="150" y1="288" x2="150" y2="64" stroke="#888780" stroke-width="0.75" stroke-dasharray="3 3"/>
<text x="150" y="54" font-size="12" fill="#5F5E5A" text-anchor="middle">court-side face plane</text>
<rect x="184" y="260" width="260" height="30" rx="2" fill="#B4B2A9" fill-opacity="0.55" stroke="#888780" stroke-width="0.75"/>
<rect x="190" y="286" width="246" height="5" fill="#F0997B" fill-opacity="0.9"/>
<rect x="184" y="290" width="260" height="160" rx="2" fill="#B4B2A9" fill-opacity="0.35" stroke="#888780" stroke-width="0.75"/>
<rect x="174" y="310" width="10" height="24" fill="#F0997B" fill-opacity="0.9"/>
<rect x="174" y="426" width="10" height="24" fill="#F0997B" fill-opacity="0.9"/>
<circle cx="314" cy="380" r="14" fill="none" stroke="#888780" stroke-width="1.25"/>
<circle cx="314" cy="380" r="4" fill="#888780"/>
<rect x="184" y="180" width="90" height="80" fill="#B4B2A9" fill-opacity="0.6" stroke="#888780" stroke-width="0.75"/>
<polygon points="184,75 274,181 184,181" fill="#B4B2A9" fill-opacity="0.5" stroke="#888780" stroke-width="0.75"/>
<polygon points="184,75 274,181 269,177 179,71" fill="#B4B2A9" fill-opacity="0.7" stroke="#888780" stroke-width="0.75"/>
<polygon points="160,79 174,68 270,183 257,194" fill="#5F5E5A" stroke="#B4B2A9" stroke-width="0.75"/>
<polygon points="252,199 272,181 276,186 258,203" fill="#B4B2A9" fill-opacity="0.7" stroke="#888780" stroke-width="0.75"/>
<polygon points="240,206 252,199 258,203 247,209" fill="#B4B2A9" fill-opacity="0.7" stroke="#888780" stroke-width="0.75"/>
<circle cx="186" cy="110" r="5" fill="#EF9F27" stroke="#854F0B" stroke-width="0.75"/>
<circle cx="196" cy="126" r="2" fill="#D3D1C7"/>
<line x1="186" y1="110" x2="80" y2="199" stroke="#EF9F27" stroke-width="1" stroke-dasharray="5 4" marker-end="url(#aa)"/>
<text x="44" y="216" font-size="12" fill="#5F5E5A">optical axis 40°</text>
<line x1="148" y1="290" x2="114" y2="290" stroke="#888780" stroke-width="0.5" stroke-dasharray="2 2"/>
<line x1="180" y1="110" x2="114" y2="110" stroke="#888780" stroke-width="0.5" stroke-dasharray="2 2"/>
<line x1="118" y1="110" x2="118" y2="290" stroke="#888780" stroke-width="0.75" marker-start="url(#ag)" marker-end="url(#ag)"/>
<text x="110" y="204" font-size="12" fill="#5F5E5A" text-anchor="end">90</text>
<line x1="186" y1="106" x2="186" y2="90" stroke="#888780" stroke-width="0.5" stroke-dasharray="2 2"/>
<line x1="150" y1="96" x2="186" y2="96" stroke="#888780" stroke-width="0.75" marker-start="url(#ag)" marker-end="url(#ag)"/>
<text x="168" y="88" font-size="12" fill="#5F5E5A" text-anchor="middle">18</text>
<line x1="184" y1="452" x2="184" y2="474" stroke="#888780" stroke-width="0.5" stroke-dasharray="2 2"/>
<line x1="444" y1="452" x2="444" y2="474" stroke="#888780" stroke-width="0.5" stroke-dasharray="2 2"/>
<line x1="184" y1="470" x2="444" y2="470" stroke="#888780" stroke-width="0.75" marker-start="url(#ag)" marker-end="url(#ag)"/>
<text x="314" y="486" font-size="12" fill="#5F5E5A" text-anchor="middle">130</text>
<line x1="446" y1="290" x2="464" y2="290" stroke="#888780" stroke-width="0.5" stroke-dasharray="2 2"/>
<line x1="446" y1="450" x2="464" y2="450" stroke="#888780" stroke-width="0.5" stroke-dasharray="2 2"/>
<line x1="460" y1="290" x2="460" y2="450" stroke="#888780" stroke-width="0.75" marker-start="url(#ag)" marker-end="url(#ag)"/>
<text x="468" y="374" font-size="12" fill="#5F5E5A">80</text>
<line x1="184" y1="512" x2="184" y2="528" stroke="#888780" stroke-width="0.5" stroke-dasharray="2 2"/>
<line x1="536" y1="512" x2="536" y2="528" stroke="#888780" stroke-width="0.5" stroke-dasharray="2 2"/>
<line x1="184" y1="524" x2="536" y2="524" stroke="#888780" stroke-width="0.75" marker-start="url(#ag)" marker-end="url(#ag)"/>
<text x="360" y="540" font-size="12" fill="#5F5E5A" text-anchor="middle">fin ≈300 deep</text>
<text x="44" y="72" font-size="12" fill="#5F5E5A">phone (landscape)</text>
<line x1="146" y1="70" x2="158" y2="76" stroke="#888780" stroke-width="0.5" stroke-dasharray="2 2"/>
<text x="320" y="150" font-size="12" fill="#5F5E5A">wedge — 40° / 32° swap</text>
<line x1="316" y1="152" x2="264" y2="170" stroke="#888780" stroke-width="0.5" stroke-dasharray="2 2"/>
<text x="296" y="224" font-size="12" fill="#5F5E5A">mast</text>
<line x1="292" y1="222" x2="276" y2="222" stroke="#888780" stroke-width="0.5" stroke-dasharray="2 2"/>
<text x="456" y="250" font-size="12" fill="#5F5E5A">saddle cap</text>
<line x1="452" y1="252" x2="446" y2="262" stroke="#888780" stroke-width="0.5" stroke-dasharray="2 2"/>
<text x="470" y="320" font-size="12" fill="#5F5E5A">TPU seat + pads</text>
<line x1="466" y1="318" x2="438" y2="292" stroke="#888780" stroke-width="0.5" stroke-dasharray="2 2"/>
<text x="338" y="384" font-size="12" fill="#5F5E5A">M5 thumbscrew</text>
<text x="480" y="352" font-size="12" fill="#5F5E5A">glass fin</text>
<text x="44" y="330" font-size="12" fill="#5F5E5A">wall glass</text>
<line x1="108" y1="326" x2="148" y2="318" stroke="#888780" stroke-width="0.5" stroke-dasharray="2 2"/>
<text x="84" y="244" font-size="12" fill="#5F5E5A" text-anchor="middle">court side</text>
</svg>
